<svg id="lupa" xmlns="http://www.w3.org/2000/svg" xmlns:xlink="http://www.w3.org/1999/xlink" width="40" height="40" viewBox="0 0 40 40">
  <defs>
    <clipPath id="clip-path">
      <path id="Mask" d="M21.063,23.935V22.422l-.517-.536a12.463,12.463,0,1,1,1.341-1.341l.536.517h1.513l9.554,9.575L30.638,33.49Z"/>
    </clipPath>
  </defs>
  <g id="Icon_Search" data-name="Icon/Search">
    <rect id="Base" width="40" height="40" fill="none"/>
    <g id="Mask_Group_20" data-name="Mask Group 20" transform="translate(3 3)" clip-path="url(#clip-path)">
      <g id="Symbols">
        <g id="Icon_Search-2" data-name="Icon/Search">
          <g id="Mask-2" data-name="Mask">
            <path id="Path_13" data-name="Path 13" d="M26.931,24.059H25.418l-.536-.517a12.463,12.463,0,1,0-1.34,1.34l.517.536v1.512l9.572,9.553,2.853-2.853-9.553-9.572Zm-11.487,0a8.615,8.615,0,1,1,8.615-8.615,8.6,8.6,0,0,1-8.615,8.615Z" transform="translate(-3 -3)"/>
          </g>
        </g>
      </g>
    </g>
  </g>
</svg>
