<svg xmlns="http://www.w3.org/2000/svg" xmlns:xlink="http://www.w3.org/1999/xlink" width="51.477" height="27.157" viewBox="0 0 51.477 27.157">
  <defs>
    <clipPath id="clip-path">
      <path id="Mask" d="M6.439,27.157a2.845,2.845,0,0,1-2.747-2.089L.057,11.8A1.216,1.216,0,0,1,0,11.418,1.435,1.435,0,0,1,1.431,9.988H8.284L14.551.616A1.4,1.4,0,0,1,15.739,0a1.42,1.42,0,0,1,1.187.6l6.267,9.386h6.853a1.435,1.435,0,0,1,1.431,1.431l-.042.386L27.8,25.068a2.876,2.876,0,0,1-2.762,2.089Z" transform="translate(1 2)" fill="#95a1bb"/>
    </clipPath>
  </defs>
  <g id="Component_63_1" data-name="Component 63 – 1" transform="translate(1)">
    <text id="About_Gallery_Pricin" data-name="About Gallery Pricin" transform="translate(5 21)" fill="#95a1bb" font-size="16" font-family="Rubik-Bold, Rubik" font-weight="700" letter-spacing="0.167em"><tspan x="-5.2" y="0">2</tspan></text>
    <g id="Mask_Group_16" data-name="Mask Group 16" transform="translate(18 -2)" clip-path="url(#clip-path)">
      <g id="Symbols" transform="translate(1 2)">
        <g id="Icon_Shop" data-name="Icon/Shop">
          <g id="Mask-2" data-name="Mask">
            <path id="Path_9" data-name="Path 9" d="M24.193,11.987,17.926,2.6A1.42,1.42,0,0,0,16.739,2a1.4,1.4,0,0,0-1.188.615L9.284,11.987H2.431A1.435,1.435,0,0,0,1,13.418a1.205,1.205,0,0,0,.057.386L4.691,27.067a2.845,2.845,0,0,0,2.747,2.089h18.6A2.875,2.875,0,0,0,28.8,27.067L32.434,13.8l.043-.386a1.435,1.435,0,0,0-1.431-1.431Zm-11.747,0,4.292-6.3,4.292,6.3Z" transform="translate(-1 -2)" fill="#95a1bb"/>
          </g>
        </g>
      </g>
    </g>
  </g>
</svg>
