<svg xmlns="http://www.w3.org/2000/svg" xmlns:xlink="http://www.w3.org/1999/xlink" width="20.437" height="17.632" viewBox="0 0 20.437 17.632">
  <defs>
    <clipPath id="clip-path">
      <path id="Mask" d="M4.18,17.632A1.847,1.847,0,0,1,2.4,16.276L.037,7.664A.79.79,0,0,1,0,7.413a.932.932,0,0,1,.929-.929h4.45L9.447.4a.909.909,0,0,1,.771-.4.922.922,0,0,1,.771.39l4.069,6.094h4.45a.932.932,0,0,1,.929.929l-.028.251L18.05,16.276a1.867,1.867,0,0,1-1.793,1.356Z" fill="#fff"/>
    </clipPath>
  </defs>
  <g id="Grupo_de_máscara_25" data-name="Grupo de máscara 25" clip-path="url(#clip-path)">
    <g id="Symbols" transform="translate(0 0)">
      <g id="Icon_Shop" data-name="Icon/Shop">
        <g id="Mask-2" data-name="Mask">
          <path id="Caminho_18" data-name="Caminho 18" d="M16.058,8.484,11.989,2.39A.922.922,0,0,0,11.218,2a.908.908,0,0,0-.771.4L6.379,8.484H1.929A.932.932,0,0,0,1,9.413a.782.782,0,0,0,.037.251L3.4,18.275A1.847,1.847,0,0,0,5.18,19.631H17.256a1.867,1.867,0,0,0,1.793-1.356l2.359-8.611.028-.251a.932.932,0,0,0-.929-.929Zm-7.627,0L11.218,4.4l2.787,4.087Z" transform="translate(-1 -2)" fill="#fff"/>
        </g>
      </g>
    </g>
  </g>
</svg>
