<svg xmlns="http://www.w3.org/2000/svg" xmlns:xlink="http://www.w3.org/1999/xlink" width="30" height="23" viewBox="0 0 30 23">
  <defs>
    <clipPath id="clip-path">
      <path id="Shape" d="M3,23a2.948,2.948,0,0,1-3-2.875L.015,2.875A2.935,2.935,0,0,1,3,0H27a2.948,2.948,0,0,1,3,2.875V20.125A2.948,2.948,0,0,1,27,23Z" transform="translate(2 4)" fill="#cad1e1"/>
    </clipPath>
  </defs>
  <g id="Mask_Group_22" data-name="Mask Group 22" transform="translate(-2 -4)" clip-path="url(#clip-path)">
    <g id="Symbols" transform="translate(2 4)">
      <g id="Icon_Message" data-name="Icon/Message">
        <g id="Shape-2" data-name="Shape">
          <path id="Path_15" data-name="Path 15" d="M28.757,4H4.973A2.969,2.969,0,0,0,2.015,6.973L2,24.811a2.982,2.982,0,0,0,2.973,2.973H28.757a2.982,2.982,0,0,0,2.973-2.973V6.973A2.982,2.982,0,0,0,28.757,4Zm0,5.946L16.865,17.379,4.973,9.946V6.973l11.892,7.433L28.757,6.973V9.946Z" transform="translate(-2 -4)" fill="#cad1e1"/>
        </g>
      </g>
    </g>
  </g>
</svg>
