<svg id="gmail" xmlns="http://www.w3.org/2000/svg" width="27" height="21" viewBox="0 0 27 21">
  <path id="Caminho_30" data-name="Caminho 30" d="M16.58,19.107,3.89,11.031A3,3,0,1,1,7.111,5.97l9.31,5.925L24.78,6.043a3,3,0,1,1,3.44,4.915Z" transform="translate(-2.5 -5.5)" fill="#ea4435"/>
  <path id="Caminho_31" data-name="Caminho 31" d="M2,0H6V18a3,3,0,0,1-3,3H3a3,3,0,0,1-3-3V2A2,2,0,0,1,2,0Z" transform="translate(27 21) rotate(180)" fill="#00ac47"/>
  <path id="Caminho_32" data-name="Caminho 32" d="M29.456,8.066c-.009-.06-.008-.121-.021-.181-.019-.092-.055-.177-.082-.265a2.932,2.932,0,0,0-.1-.3c-.02-.048-.051-.089-.073-.135a2.983,2.983,0,0,0-.215-.385c-.04-.058-.09-.108-.134-.163a3.028,3.028,0,0,0-.245-.285c-.067-.065-.142-.119-.215-.177a3.02,3.02,0,0,0-.24-.186c-.079-.052-.166-.092-.25-.136s-.175-.1-.267-.133-.184-.059-.277-.086a2.853,2.853,0,0,0-.281-.078,3.054,3.054,0,0,0-.357-.036c-.076-.005-.151-.019-.227-.018a2.978,2.978,0,0,0-.422.042c-.056.008-.113.008-.169.019q-.283.086-.564.178c-.052.022-.1.055-.147.079A2.9,2.9,0,0,0,23.5,8.5v5.762l4.72-3.3a2.888,2.888,0,0,0,1.236-2.892Z" transform="translate(-2.5 -5.5)" fill="#ffba00"/>
  <path id="Caminho_33" data-name="Caminho 33" d="M5.5,5.5h0a3,3,0,0,1,3,3v18h-4a2,2,0,0,1-2-2V8.5a3,3,0,0,1,3-3Z" transform="translate(-2.5 -5.5)" fill="#4285f4"/>
  <path id="Caminho_34" data-name="Caminho 34" d="M2.544,8.066c.009-.06.008-.121.021-.181.019-.092.055-.177.082-.265a2.931,2.931,0,0,1,.1-.3c.02-.048.051-.089.074-.135A2.972,2.972,0,0,1,3.032,6.8c.04-.058.09-.108.134-.163a3.027,3.027,0,0,1,.245-.285c.066-.065.142-.119.215-.177a3,3,0,0,1,.24-.186c.079-.052.166-.092.25-.136a2.974,2.974,0,0,1,.267-.134c.089-.036.184-.059.277-.086a2.845,2.845,0,0,1,.281-.078A3.056,3.056,0,0,1,5.3,5.52c.076-.005.151-.019.227-.018a2.976,2.976,0,0,1,.422.043c.056.008.113.008.169.019a2.906,2.906,0,0,1,.286.089,2.916,2.916,0,0,1,.278.089c.051.022.1.055.146.08a2.974,2.974,0,0,1,.374.21A2.994,2.994,0,0,1,8.5,8.5v5.762l-4.72-3.3A2.889,2.889,0,0,1,2.544,8.066Z" transform="translate(-2.5 -5.5)" fill="#c52528"/>
</svg>
