<svg xmlns="http://www.w3.org/2000/svg" width="21.604" height="12.741" viewBox="0 0 21.604 12.741">
  <g id="mostrarsenha" transform="translate(0 -3.659)">
    <path id="Eye_Shape" data-name="Eye Shape" d="M8.606,16.206l1.3-1.369a4.736,4.736,0,0,0,.9.093,4.851,4.851,0,0,0,4.8-4.9,4.985,4.985,0,0,0-.12-1.064L18.25,6.053c2.213,1.6,3.354,3.495,3.354,3.977,0,.871-3.716,6.37-10.8,6.37A12.938,12.938,0,0,1,8.606,16.206Zm-5.249-2.2C1.142,12.407,0,10.511,0,10.03c0-.875,3.716-6.372,10.8-6.371a12.988,12.988,0,0,1,2.2.193L11.7,5.22a4.738,4.738,0,0,0-.9-.094A4.854,4.854,0,0,0,6,10.03,5.01,5.01,0,0,0,6.123,11.1L3.357,14.009Z" transform="translate(0 0)" fill="#565656"/>
  </g>
</svg>
