<svg xmlns="http://www.w3.org/2000/svg" width="29.769" height="30" viewBox="0 0 29.769 30">
  <path id="whatsIcon" d="M19.089,16.512a8.767,8.767,0,0,1,1.929.875l-.039-.023a8.377,8.377,0,0,1,1.754,1.041l-.019-.014a.818.818,0,0,1,.04.254c0,.014,0,.026,0,.04h0a4.069,4.069,0,0,1-.339,1.5l.01-.026a2.61,2.61,0,0,1-1.359,1.263l-.017.006a4.53,4.53,0,0,1-1.97.514H19.07a10.427,10.427,0,0,1-3.735-1.227l.054.027a11.125,11.125,0,0,1-3.295-2.286h0a25.591,25.591,0,0,1-2.81-3.492l-.059-.093a6.725,6.725,0,0,1-1.375-3.744v-.171a4.278,4.278,0,0,1,1.43-3.059l0,0a1.462,1.462,0,0,1,1.006-.426h0a3.1,3.1,0,0,1,.365.031l-.016,0A2.9,2.9,0,0,0,11,7.521h0a.749.749,0,0,1,.078,0,.8.8,0,0,1,.44.131h0a1.4,1.4,0,0,1,.3.522l0,.01q.155.387.64,1.7a10.3,10.3,0,0,1,.466,1.374l.017.079a1.967,1.967,0,0,1-.666,1.111l0,0q-.669.707-.669.9a.545.545,0,0,0,.1.293h0a8.787,8.787,0,0,0,1.97,2.649l.006.006a12.363,12.363,0,0,0,2.852,1.925l.074.033a.851.851,0,0,0,.424.136h0q.291,0,1.048-.94t1.005-.94Zm-3.934,10.27h.028a11.8,11.8,0,0,0,4.767-1l-.076.03a12.058,12.058,0,0,0,6.454-6.4l.03-.079a11.78,11.78,0,0,0,.969-4.719,11.939,11.939,0,0,0-1-4.8l.03.077a12.058,12.058,0,0,0-6.405-6.454l-.079-.03a11.78,11.78,0,0,0-4.719-.969,11.939,11.939,0,0,0-4.8,1l.078-.03a12.058,12.058,0,0,0-6.454,6.4l-.03.079a11.853,11.853,0,0,0-.969,4.734,12,12,0,0,0,2.349,7.15l-.024-.032L3.778,26.26l4.69-1.493A11.812,11.812,0,0,0,15.1,26.782h.059ZM15.155,0H15.2a14.137,14.137,0,0,1,5.719,1.2l-.091-.036a14.525,14.525,0,0,1,7.745,7.686l.036.1a14.163,14.163,0,0,1,1.163,5.669,14.345,14.345,0,0,1-1.2,5.761l.036-.092a14.525,14.525,0,0,1-7.686,7.745l-.1.036A13.973,13.973,0,0,1,15.2,29.225h-.106a14.323,14.323,0,0,1-7.08-1.86l.071.038L0,30l2.636-7.849a14.551,14.551,0,0,1-.894-13.3l-.036.094A14.525,14.525,0,0,1,9.391,1.2l.1-.036A13.973,13.973,0,0,1,15.115,0h.039Z" transform="translate(0.001)"/>
</svg>
